<svg xmlns="http://www.w3.org/2000/svg" id="ai" y="254" width="176" height="32" version="1.1" viewBox="-1 -1 502 87" >
  <path d="m55.27 22.07-1.97-3.97c-3.33-6.62-3.26-6.97-6.63-7.4-0.94-0.14-1.43-0.26-1.43-0.72v-2.1l0.28-0.2h19.65l0.52 0.16v2.1c0 0.46-0.35 0.7-1.04 0.7l-1.43 0.2c-3.6 0.3-3 1.76-0.62 6.53l22.72 46.46 0.78 0.2 20.16-47.83c0.7-1.93 0.6-3.3-0.3-4.1s-1.55-1.25-3.9-1.35l-1.88-0.1c-0.23 0-0.45-0.08-0.66-0.23a0.72 0.72 0 0 1-0.32-0.58v-2l0.3-0.2h22.77l0.23 0.2v2c0 0.54-0.3 0.8-0.92 0.8-2.98 0.14-5.2 0.8-6.63 1.94a11.43 11.43 0 0 0-3.36 4.86s-18.55 42.43-24.9 56.54c-2.42 4.62-4.8 4.2-6.9-0.14-4.44-9.14-16.93-36.84-16.93-36.84l-7.6-14.93z" />
  <path d="m91.66 7.65s-12.8-0.04-18.52 0l-0.28 0.2v2c0 0.23 0.1 0.42 0.3 0.57 0.22 0.16 0.44 0.24 0.67 0.24l0.92 0.1c2.33 0.1 3.4 0.7 3.72 1.1 0.56 0.67 0.83 1.4-0.52 4.34l-23.92 47.7-0.62-0.15s-17.13-36.13-22.1-48.2a8.59 8.59 0 0 1-0.73-2.76c0-1.24 1.1-1.9 3.32-2l2.57-0.1c0.7 0 1.04-0.27 1.04-0.82v-1.97l-0.23-0.2s-20.52-0.03-24.76 0l-0.22 0.2v2.08c0 0.38 0.48 0.6 1.43 0.72 2.62 0.14 4.33 0.55 5.15 1.24 0.82 0.7 1.7 2.47 2.84 5.23 6.22 14.96 19.45 41.65 25.9 56.86 1.85 4.15 4.2 4.8 7.02-0.13 4.9-9.1 18.2-36.87 18.2-36.87l10.47-19.6c1.2-2.05 2.4-3.9 2.98-4.76 1.1-1.57 1.7-1.87 4.7-2 0.6 0 0.9-0.28 0.9-0.83v-1.98l-0.22-0.2zm38.94 61.93c0 2.3 1.05 3.64 4.38 3.95l2.2 0.2c0.3 0 0.6 0.22 0.6 0.63v2.2l-0.1 0.2s-7.9-0.2-11.12-0.2c-2.9 0-11.03 0.2-11.03 0.2l-0.2-0.2v-2.2c0-0.4 0.3-0.62 0.72-0.62l2.08-0.2c3.44-0.32 4.48-1.98 4.48-3.96v-34.63c0-2.3-1.25-2.92-4.47-3.22l-2.08-0.22c-0.4 0-0.72-0.08-0.72-0.4v-2.4l0.1-0.2s8.22 0.2 11.44 0.2a726 726 0 0 0 10.82-0.2l0.1 0.2v2.29c0 0.3-0.22 0.5-0.63 0.5l-2.2 0.22c-3.2 0.3-4.36 1.14-4.36 3.23v34.63zm30.7 0c0 2.3 1.36 3.43 4.37 3.95l1.15 0.2c0.3 0.1 0.62 0.22 0.62 0.63v2.2l-0.1 0.2s-6.55-0.2-9.67-0.2c-2.92 0-11.44 0.2-11.44 0.2l-0.2-0.2v-2.2c0-0.4 0.3-0.62 0.72-0.62l2.08-0.2c3.12-0.32 4.47-1.98 4.47-3.96v-34.63c0-2.3-1.15-2.92-4.47-3.22l-2.08-0.22c-0.42 0-0.73-0.08-0.73-0.4v-2.4l0.1-0.2s8.53 0.2 11.75 0.2c2.92 0 9.47-0.2 9.47-0.2l0.1 0.2v2.29c0 0.3-0.2 0.4-0.62 0.5l-1.15 0.22c-3.22 0.62-4.36 1.14-4.36 3.23v15.7c3.44 0 5.4-1.76 10-6.65 4.15-4.58 7.37-8.42 7.37-10.4 0-0.84-0.93-1.77-3-2.1-0.43-0.1-0.64-0.2-0.64-0.5v-2.4l0.1-0.1s8.43 0.2 11.45 0.2c2.7 0 7.28-0.2 7.28-0.2l0.3 0.1v2.4c0 0.3-0.3 0.5-0.82 0.5-4.06 0.32-6.87 0.53-10.6 4.8l-8.95 10.3c-1.78 1.86-2.4 3-2.4 3.84 0 0.62 0.4 1.14 0.93 1.76l15.7 18.93c1.25 1.45 3.75 2.08 5.83 2.5l0.52 0.1c0.3 0.1 0.73 0.3 0.73 0.62v2.18l-0.3 0.1s-5.52-0.1-8.43-0.1c-2.6 0-6.34 0.1-6.34 0.1l-0.1-0.1v-1.25c0-1.35-0.1-2.5-1.57-4.15l-11.54-14.36c-1.56-2.08-3.23-2.6-5.5-2.6v15.4zm56.07 0c0 2.3 1.04 3.64 4.37 3.95l2.2 0.2c0.3 0 0.6 0.22 0.6 0.63v2.2l-0.1 0.2s-7.9-0.2-11.12-0.2c-2.9 0-11.03 0.2-11.03 0.2l-0.2-0.2v-2.2c0-0.4 0.3-0.62 0.7-0.62l2.1-0.2c3.43-0.32 4.47-1.98 4.47-3.96v-34.63c0-2.3-1.25-2.92-4.48-3.22l-2.1-0.22c-0.4 0-0.7-0.08-0.7-0.4v-2.4l0.1-0.2s8.2 0.2 11.43 0.2a726 726 0 0 0 10.82-0.2l0.1 0.2v2.29c0 0.3-0.2 0.5-0.62 0.5l-2.2 0.22c-3.2 0.3-4.36 1.14-4.36 3.23v34.63zm22.48-34.43c0-3.22-1.36-3.33-6.24-3.64-0.62 0-0.72-0.3-0.72-0.5v-2.4l0.2-0.1c1.57 0 7.7 0.2 10.72 0.2 2.9 0 7.07-0.2 10.92-0.2 14.76 0 17.46 7.27 17.46 12.7 0 6.23-3 16-17.77 16-2.6 0-4.67-0.2-6.55-1.04v13.93c0 2.28 1.25 2.8 4.58 3.32l2.08 0.3c0.43 0.12 0.74 0.22 0.74 0.64v2.18l-0.1 0.2s-8.32-0.2-11.54-0.2c-2.9 0-10.7 0.2-10.7 0.2l-0.12-0.2v-2.18c0-0.42 0.2-0.52 0.63-0.63l2.2-0.3c3.2-0.43 4.25-1.36 4.25-3.34v-34.95zm8 18.1c2.08 0.84 4.68 0.94 6.76 0.94 6.26 0 9.26-3.76 9.26-11.76 0-8.95-4.05-10.92-9.77-10.92-5 0-6.25 0.93-6.25 3.64zm42.25 23.3c-3.13 0-10.3 0.2-10.3 0.2l-0.1-0.2v-2.3c0-0.2 0.1-0.5 0.62-0.5l2.4-0.22c3.22-0.3 4.16-2.4 4.16-4.47v-34.32c0-2.4-1.25-2.8-4.17-3l-2.38-0.23c-0.63-0.08-0.63-0.3-0.63-0.4v-2.4l0.1-0.2s8.1 0.2 11.23 0.2h15.3c3.1 0 10.5-0.2 10.5-0.2l0.2 0.2c0.1 4.47 0.84 8.54 1.57 12.48l-2.6 0.42c-1.14-3.85-3.1-9.36-9.77-9.36h-8.32c-1.97 0-3 0.73-3 2.5v15.05h7.8c2.9 0 3.63-1.25 4.05-3.33l0.62-2.2c0-0.3 0.2-0.52 0.62-0.52h1.76c0.2 0 0.2 0.1 0.2 0.3-0.2 2.3-0.6 5.22-0.6 7.7 0 2.6 0.4 4.8 0.6 7.2l-0.2 0.2h-1.76c-0.52 0-0.74-0.2-0.74-0.52l-0.52-2.3c-0.4-2.07-1.35-3.22-4.06-3.22h-7.8v15.92c0 1.97 1.14 3.95 3.02 3.95h9.88c5.3 0 8.22-3.32 9.47-8.73l2.6 0.3-2.1 11.97-0.2 0.2s-6.14-0.2-9.26-0.2h-18.2zm39.1-2.81 2.4-0.2c3.12-0.32 4.16-1.26 4.16-4.48v-34.32c0-2.7-0.73-2.7-4.16-3l-2.28-0.23c-0.42 0-0.74-0.2-0.74-0.5v-2.3l0.1-0.2s9.16 0.2 11.03 0.2c1.98 0 11.04-0.2 13.74-0.2 17.37 0 25.9 10.8 25.9 24.64 0 18.2-12.9 23.6-24.44 23.6-8.32 0-11.95-0.2-15.18-0.2-3.12 0-11.03 0.2-11.03 0.2l-0.1-0.2v-2.18c-0.02-0.3 0.2-0.62 0.6-0.62zm23.2 0c11.44 0 17.9-4.26 17.9-18.82 0-10.82-2.4-23.4-19.87-23.4-4.06 0-6.66 0.62-6.66 3.22v34.32c0 2.9 0.72 4.68 8.63 4.68zm51.5-4.16c0 2.3 1.03 3.64 4.36 3.95l2.2 0.2c0.3 0 0.6 0.22 0.6 0.63v2.2l-0.1 0.2s-7.9-0.2-11.12-0.2c-2.9 0-11.02 0.2-11.02 0.2l-0.2-0.2v-2.2c0-0.4 0.3-0.62 0.7-0.62l2.1-0.2c3.43-0.32 4.47-1.98 4.47-3.96v-34.63c0-2.3-1.26-2.92-4.48-3.22l-2.1-0.22c-0.4 0-0.7-0.08-0.7-0.4v-2.4l0.1-0.2s8.2 0.2 11.42 0.2a726 726 0 0 0 10.82-0.2l0.1 0.2v2.29c0 0.3-0.2 0.5-0.62 0.5l-2.2 0.22c-3.2 0.3-4.35 1.14-4.35 3.23v34.63zm32.03 3.95 3.02 0.2c0.42 0 0.83 0.33 0.83 0.84v1.98l-0.2 0.2s-11.34-0.2-13.84-0.2c-2.7 0-9.36 0.2-9.36 0.2l-0.2-0.2v-1.98c0-0.5 0.3-0.83 0.82-0.83 4.58-0.3 7.17-1.14 10.1-7.8l23.07-54.08c1.14-2.7 1.98-3.75 3.54-3.75 1.46 0 2 1.05 2.8 3.13l21.33 56.37c1.46 4.06 3.54 5.62 7.7 6.03l1.15 0.1c0.52 0 1.04 0.3 1.04 0.84v1.97l-0.3 0.2s-8.02-0.2-12.08-0.2c-3.64 0-13.83 0.2-13.83 0.2l-0.1-0.2v-1.97c0-0.53 0.2-0.84 0.74-0.84l2.9-0.2c3.96-0.3 5.43-1.57 4.38-4.48l-6.34-17.58h-21.63c-2.5 0-3.12 0.42-3.64 1.77l-6.03 15.08c-1.04 2.6 0.32 4.9 4.16 5.2zm25.47-26.43-10.07-27.76h-0.2l-10.4 26.42c-0.43 1.04 0.3 1.35 2.58 1.35h18.1z" />
</svg>
